<svg width="72" height="72" viewBox="0 0 72 72" fill="none" xmlns="http://www.w3.org/2000/svg">
<rect width="72" height="72" fill="white"/>
<rect width="72" height="72" fill="#10120F"/>
<path d="M27.9191 16.7939C28.1834 17.1243 28.3864 17.5114 28.528 17.9551C28.679 18.3893 28.7545 18.8613 28.7545 19.3711C28.7545 20.1074 28.6177 20.7824 28.3439 21.396C28.0796 22.0002 27.702 22.5194 27.2111 22.9536C26.7202 23.3879 26.1302 23.7277 25.4411 23.9731C24.7614 24.2091 24.0109 24.3271 23.1896 24.3271C22.5949 24.3271 22.0379 24.2658 21.5187 24.1431C20.9995 24.0109 20.5888 23.8504 20.2868 23.6616C20.1074 23.9259 19.9564 24.1761 19.8336 24.4121C19.7109 24.6481 19.6496 24.9124 19.6496 25.2051C19.6496 25.5638 19.8195 25.8612 20.1593 26.0972C20.5086 26.3332 20.9664 26.4606 21.5329 26.4795L25.2711 26.6211C25.9791 26.64 26.6305 26.7297 27.2252 26.8901C27.8294 27.0506 28.3439 27.2819 28.7687 27.584C29.2029 27.8861 29.5381 28.259 29.7741 28.7026C30.0195 29.1463 30.1422 29.6608 30.1422 30.2461C30.1422 30.8786 30.0053 31.478 29.7316 32.0444C29.4578 32.6108 29.033 33.1064 28.4572 33.5312C27.8908 33.9655 27.1686 34.3101 26.2907 34.5649C25.4127 34.8198 24.3696 34.9473 23.1613 34.9473C22.0096 34.9473 21.0278 34.8529 20.216 34.6641C19.4135 34.4847 18.7527 34.2298 18.2335 33.8994C17.7143 33.5785 17.3367 33.1914 17.1007 32.7383C16.8647 32.2946 16.7467 31.8037 16.7467 31.2656C16.7467 30.5765 16.9072 29.9723 17.2282 29.4531C17.5491 28.9339 18.0447 28.4336 18.715 27.9521C18.4695 27.8389 18.2571 27.6973 18.0778 27.5273C17.8984 27.3574 17.7521 27.1733 17.6388 26.9751C17.5255 26.7674 17.4406 26.5503 17.3839 26.3237C17.3273 26.0972 17.299 25.8753 17.299 25.6582C17.299 25.0446 17.4406 24.4829 17.7238 23.9731C18.0164 23.4634 18.361 22.9819 18.7575 22.5288C18.5781 22.3117 18.4176 22.0993 18.276 21.8916C18.1439 21.6839 18.0259 21.4621 17.922 21.2261C17.8276 20.9806 17.7521 20.721 17.6954 20.4473C17.6482 20.1641 17.6246 19.8431 17.6246 19.4844C17.6246 18.748 17.7568 18.0778 18.0211 17.4736C18.2949 16.86 18.6725 16.3361 19.1539 15.9019C19.6448 15.4676 20.2301 15.1325 20.9098 14.8965C21.5989 14.651 22.3589 14.5283 23.1896 14.5283C23.5389 14.5283 23.874 14.5519 24.195 14.5991C24.5159 14.6463 24.7991 14.7077 25.0446 14.7832H30.1989V16.7939H27.9191ZM19.3663 31.0532C19.3663 31.7235 19.7156 32.2096 20.4142 32.5117C21.1128 32.8232 22.0851 32.979 23.3312 32.979C24.1147 32.979 24.7708 32.9082 25.2995 32.7666C25.8375 32.625 26.2671 32.4362 26.588 32.2002C26.9184 31.9736 27.1544 31.7093 27.296 31.4072C27.4376 31.1146 27.5084 30.8125 27.5084 30.501C27.5084 29.9251 27.2724 29.5003 26.8004 29.2266C26.3284 28.9528 25.6063 28.7923 24.6339 28.7451L20.924 28.6177C20.6124 28.8254 20.3528 29.0283 20.1452 29.2266C19.9469 29.4248 19.7912 29.623 19.6779 29.8213C19.5646 30.029 19.4843 30.2319 19.4371 30.4302C19.3899 30.6379 19.3663 30.8455 19.3663 31.0532ZM20.1168 19.4277C20.1168 19.8809 20.1924 20.2962 20.3434 20.6738C20.4944 21.0514 20.7068 21.3724 20.9806 21.6367C21.2544 21.901 21.5753 22.1087 21.9435 22.2598C22.3211 22.4014 22.7365 22.4722 23.1896 22.4722C23.6805 22.4722 24.1147 22.3919 24.4923 22.2314C24.8794 22.0615 25.2003 21.835 25.4552 21.5518C25.7195 21.2686 25.9178 20.9429 26.0499 20.5747C26.1915 20.2065 26.2623 19.8242 26.2623 19.4277C26.2623 18.9746 26.1868 18.5592 26.0358 18.1816C25.8847 17.804 25.6723 17.4831 25.3986 17.2188C25.1248 16.9544 24.7991 16.7515 24.4215 16.6099C24.0534 16.4588 23.6427 16.3833 23.1896 16.3833C22.6987 16.3833 22.2597 16.4683 21.8727 16.6382C21.4951 16.8081 21.1741 17.0347 20.9098 17.3179C20.6549 17.5916 20.4567 17.9126 20.3151 18.2808C20.1829 18.6489 20.1168 19.0312 20.1168 19.4277ZM43.4862 14.7832H45.7377L45.8085 17.4028C46.6486 16.3927 47.4746 15.6611 48.2865 15.208C49.1078 14.7549 49.9338 14.5283 50.7645 14.5283C52.2372 14.5283 53.3511 15.005 54.1063 15.9585C54.871 16.9119 55.225 18.328 55.1683 20.2065H52.6761C52.7045 18.9604 52.5204 18.0589 52.1239 17.502C51.7368 16.9355 51.1657 16.6523 50.4105 16.6523C50.0801 16.6523 49.745 16.7137 49.4051 16.8364C49.0747 16.9497 48.7302 17.1385 48.3714 17.4028C48.0222 17.6577 47.6493 17.9881 47.2528 18.394C46.8563 18.8 46.4315 19.2909 45.9784 19.8667V29H43.4862V14.7832ZM30.0573 49.7783C30.0573 50.8828 29.9015 51.8976 29.59 52.8228C29.2785 53.7384 28.8301 54.5267 28.2448 55.1875C27.6595 55.8389 26.9468 56.3486 26.1066 56.7168C25.2664 57.0755 24.313 57.2549 23.2462 57.2549C22.2267 57.2549 21.311 57.0991 20.4992 56.7876C19.6968 56.4666 19.0123 55.9993 18.4459 55.3857C17.889 54.7721 17.4594 54.0122 17.1574 53.106C16.8647 52.1997 16.7184 51.1566 16.7184 49.9766C16.7184 48.8721 16.8742 47.8667 17.1857 46.9604C17.4972 46.0448 17.9456 45.2612 18.5309 44.6099C19.1162 43.9491 19.8289 43.4393 20.6691 43.0806C21.5093 42.7124 22.4627 42.5283 23.5294 42.5283C24.549 42.5283 25.4599 42.6888 26.2623 43.0098C27.0742 43.3213 27.7586 43.7839 28.3156 44.3975C28.882 45.0016 29.3115 45.7568 29.6041 46.6631C29.9062 47.5693 30.0573 48.6077 30.0573 49.7783ZM27.5368 49.8916C27.5368 49.0137 27.4376 48.249 27.2394 47.5977C27.0506 46.9368 26.7768 46.3893 26.4181 45.9551C26.0594 45.5114 25.6204 45.181 25.1012 44.9639C24.5914 44.7373 24.0203 44.624 23.3878 44.624C22.6515 44.624 22.019 44.7703 21.4904 45.063C20.9712 45.3462 20.5416 45.7285 20.2018 46.21C19.8714 46.6914 19.626 47.2531 19.4655 47.895C19.3144 48.5275 19.2389 49.193 19.2389 49.8916C19.2389 50.7695 19.3333 51.5389 19.5221 52.1997C19.7204 52.8605 19.9988 53.4128 20.3576 53.8564C20.7163 54.2907 21.1505 54.6211 21.6603 54.8477C22.1701 55.0648 22.7459 55.1733 23.3878 55.1733C24.1242 55.1733 24.7519 55.0317 25.2711 54.7485C25.7998 54.4559 26.2293 54.0688 26.5597 53.5874C26.8996 53.106 27.145 52.549 27.296 51.9165C27.4565 51.2746 27.5368 50.5996 27.5368 49.8916ZM53.9505 56.4761C53.3086 56.7215 52.6478 56.9009 51.9681 57.0142C51.2979 57.1369 50.604 57.1982 49.8866 57.1982C47.6398 57.1982 45.9076 56.5894 44.6898 55.3716C43.4815 54.1538 42.8773 52.3743 42.8773 50.0332C42.8773 48.9098 43.0519 47.8903 43.4012 46.9746C43.7505 46.0589 44.2414 45.2754 44.8739 44.624C45.5064 43.9727 46.2616 43.4723 47.1395 43.123C48.0174 42.7643 48.9851 42.585 50.0423 42.585C50.7787 42.585 51.4678 42.6369 52.1097 42.7407C52.7517 42.8446 53.3653 43.0145 53.9505 43.2505V45.6011C53.3369 45.2801 52.7092 45.0488 52.0672 44.9072C51.4348 44.7562 50.7787 44.6807 50.099 44.6807C49.4665 44.6807 48.8671 44.8034 48.3006 45.0488C47.7437 45.2848 47.2528 45.6294 46.828 46.0825C46.4032 46.5356 46.0681 47.0879 45.8226 47.7393C45.5772 48.3906 45.4545 49.127 45.4545 49.9482C45.4545 51.6663 45.8698 52.9549 46.7005 53.814C47.5407 54.6636 48.7018 55.0884 50.1839 55.0884C50.8542 55.0884 51.5008 55.0129 52.1239 54.8618C52.7564 54.7108 53.3653 54.4842 53.9505 54.1821V56.4761Z" fill="white"/>
</svg>
